Coordinates
version=1
nRows=13
nColumns=40
inDegrees=yes

Units are S.I. units (second, meters, Newtons, ...)
If the header above contains a line with 'inDegrees', this indicates whether rotational values are in degrees (yes) or radians (no).

endheader
time	pelvis_tilt	pelvis_list	pelvis_rotation	pelvis_tx	pelvis_ty	pelvis_tz	hip_flexion_r	hip_adduction_r	hip_rotation_r	knee_angle_r	knee_angle_r_beta	ankle_angle_r	subtalar_angle_r	mtp_angle_r	hip_flexion_l	hip_adduction_l	hip_rotation_l	knee_angle_l	knee_angle_l_beta	ankle_angle_l	subtalar_angle_l	mtp_angle_l	lumbar_extension	lumbar_bending	lumbar_rotation	arm_flex_r	arm_add_r	arm_rot_r	elbow_flex_r	pro_sup_r	wrist_flex_r	wrist_dev_r	arm_flex_l	arm_add_l	arm_rot_l	elbow_flex_l	pro_sup_l	wrist_flex_l	wrist_dev_l
      5.29000000	    -15.05903255	      1.54821831	     -4.51548584	     -0.20521670	      0.93051423	     -0.84649051	     34.83737397	    -20.51099482	    -16.46516863	     40.51752748	      0.70716426	     16.43181323	      0.00000000	      0.00000000	     32.76606837	    -25.18201043	    -21.99342344	     39.66711126	      0.69232170	     11.32394637	      0.00000000	      0.00000000	    -12.74068829	     -0.68347561	      4.08782518	    -36.45069909	    -49.20556333	     30.23754652	     95.64018698	     87.67649734	      0.00000000	      0.00000000	    -26.38728017	    -55.93690831	     34.81081984	    103.54924512	     87.67155619	      0.00000000	      0.00000000
      5.29500000	    -15.87286499	      1.58986029	     -4.69394238	     -0.21040980	      0.91653789	     -0.84702161	     38.21286246	    -21.17125697	    -15.35417681	     44.79975595	      0.78190325	     18.36230467	      0.00000000	      0.00000000	     35.07088497	    -25.76406497	    -20.96727222	     42.23240159	      0.73709446	     14.18570708	      0.00000000	      0.00000000	    -12.92633591	     -0.64601261	      4.37697322	    -36.22828386	    -49.21306178	     30.24682782	     95.46513291	     87.80394656	      0.00000000	      0.00000000	    -26.03471975	    -55.75277065	     35.00761801	    103.51217637	     87.80165028	      0.00000000	      0.00000000
      5.30000000	    -16.97531603	      1.47674076	     -4.81131544	     -0.21621114	      0.90291723	     -0.84733149	     42.12414767	    -21.63082551	    -14.07850189	     49.04337946	      0.85596845	     19.19086160	      0.00000000	      0.00000000	     38.03897593	    -26.70496946	    -20.00816791	     45.21824842	      0.78920732	     16.46485088	      0.00000000	      0.00000000	    -12.87716821	     -0.42905199	      4.61342921	    -35.82798990	    -49.20660446	     30.41113464	     95.20891378	     87.80741779	      0.00000000	      0.00000000	    -25.59452461	    -55.52096243	     35.23914491	    103.30079962	     87.79577857	      0.00000000	      0.00000000
      5.30500000	    -18.10190139	      1.46661754	     -4.87198294	     -0.22152878	      0.88953725	     -0.84765971	     45.99784305	    -22.05605591	    -12.64708461	     53.01149373	      0.92522511	     19.72060555	      0.00000000	      0.00000000	     41.45669248	    -27.68371521	    -18.97734596	     48.76307705	      0.85107625	     18.16918862	      0.00000000	      0.00000000	    -12.69752097	     -0.32794716	      4.84666079	    -35.42918831	    -49.06918244	     30.70906913	     94.81793278	     87.80008465	      0.00000000	      0.00000000	    -25.12061839	    -55.33713899	     35.49256340	    102.99018559	     87.78770629	      0.00000000	      0.00000000
      5.31000000	    -19.03511191	      1.23046846	     -4.69010317	     -0.22649632	      0.87653516	     -0.84847678	     49.25242342	    -22.54030592	    -12.07881690	     56.62595660	      0.98830938	     20.11573928	      0.00000000	      0.00000000	     45.14178000	    -28.54499752	    -17.03433955	     52.54956836	      0.91716299	     19.16615830	      0.00000000	      0.00000000	    -12.73926257	      0.06084645	      4.89592819	    -35.10132490	    -49.03647493	     31.02421419	     94.54123803	     87.78877694	      0.00000000	      0.00000000	    -24.68594479	    -55.13712395	     35.73914233	    102.71949848	     87.76993746	      0.00000000	      0.00000000
      5.31500000	    -19.73357245	      0.86718097	     -4.64652353	     -0.23079365	      0.86409555	     -0.84903837	     51.85064570	    -22.87736029	    -11.95866355	     59.72741862	      1.04244011	     20.67699711	      0.00000000	      0.00000000	     48.50146374	    -29.49338966	    -15.19051198	     56.13555549	      0.97975027	     19.90309521	      0.00000000	      0.00000000	    -12.99512714	      0.54552868	      5.08504392	    -34.82582200	    -49.05027852	     31.29090091	     94.31659724	     87.80114091	      0.00000000	      0.00000000	    -24.34784415	    -54.84619843	     35.87454726	    102.38603898	     87.77684803	      0.00000000	      0.00000000
      5.32000000	    -20.36692543	      0.09325843	     -4.28028960	     -0.23510404	      0.85227542	     -0.84989391	     53.74490757	    -23.10311234	    -12.48590337	     62.40142345	      1.08911030	     21.42572647	      0.00000000	      0.00000000	     52.03508091	    -30.31167753	    -12.69202534	     59.43303495	      1.03730214	     20.32058414	      0.00000000	      0.00000000	    -13.38041419	      1.51661176	      5.12157747	    -34.59567352	    -49.15781332	     31.50877364	     94.18806061	     87.83898999	      0.00000000	      0.00000000	    -23.99351790	    -54.57606750	     35.95566441	    102.12158727	     87.82590512	      0.00000000	      0.00000000
      5.32500000	    -20.70571626	     -0.34305496	     -4.10390311	     -0.23853209	      0.84133176	     -0.85055645	     55.27428747	    -23.53071497	    -12.79599218	     64.81119366	      1.13116872	     22.40046268	      0.00000000	      0.00000000	     54.69115485	    -30.96307727	    -11.11698094	     62.34677367	      1.08815648	     21.03629999	      0.00000000	      0.00000000	    -14.04106085	      2.05903552	      5.24265041	    -34.32450983	    -49.19494453	     31.77172795	     94.03184887	     87.87594017	      0.00000000	      0.00000000	    -23.72337867	    -54.34694028	     36.03523859	    101.93101318	     87.85380489	      0.00000000	      0.00000000
      5.33000000	    -21.27616583	     -0.57563098	     -3.98380894	     -0.24131355	      0.83039446	     -0.85118375	     56.94264701	    -24.08095140	    -12.99979178	     66.94125615	      1.16834533	     23.35477665	      0.00000000	      0.00000000	     57.16915002	    -31.40998840	     -9.88042773	     64.82583477	      1.13142426	     21.85027300	      0.00000000	      0.00000000	    -14.35865992	      2.38339445	      5.36900817	    -34.14832958	    -49.15539785	     32.11241594	     93.83233097	     87.88418265	      0.00000000	      0.00000000	    -23.58059843	    -54.10201127	     36.16727810	    101.65564170	     87.85696706	      0.00000000	      0.00000000
      5.33500000	    -21.72740488	     -0.84330081	     -3.78368539	     -0.24422614	      0.81992870	     -0.85170872	     58.28117646	    -24.66195541	    -13.31356322	     68.80627789	      1.20089610	     24.45403242	      0.00000000	      0.00000000	     59.36336205	    -31.81360468	     -8.79633235	     66.95253458	      1.16854217	     22.76725091	      0.00000000	      0.00000000	    -14.83132430	      2.72498213	      5.42745213	    -33.98367846	    -49.20485910	     32.37112640	     93.82798923	     87.88664348	      0.00000000	      0.00000000	    -23.45183264	    -54.05715232	     36.31226638	    101.65044600	     87.86075592	      0.00000000	      0.00000000
      5.34000000	    -22.41914639	     -1.12769423	     -3.57472821	     -0.24729576	      0.80929213	     -0.85213210	     59.83172351	    -25.18076961	    -13.56016423	     70.54778189	      1.23129107	     25.41522417	      0.00000000	      0.00000000	     61.75977479	    -32.14976714	     -7.62388812	     68.84948198	      1.20165015	     23.55409601	      0.00000000	      0.00000000	    -15.01191607	      3.09891312	      5.46717304	    -33.90522515	    -49.27684491	     32.68387660	     93.88921551	     87.86186785	      0.00000000	      0.00000000	    -23.34886569	    -54.06247184	     36.56918193	    101.65027249	     87.85011814	      0.00000000	      0.00000000
      5.34500000	    -23.04195850	     -1.18435668	     -3.50380888	     -0.24956207	      0.79894843	     -0.85238591	     61.44813239	    -25.72123864	    -13.45088153	     72.27594755	      1.26145325	     26.37039826	      0.00000000	      0.00000000	     63.74611974	    -32.47790842	     -6.90506025	     70.63515595	      1.23281604	     24.59687569	      0.00000000	      0.00000000	    -15.14667102	      3.16921384	      5.55660438	    -33.87230875	    -49.34019531	     32.94986795	     93.95399636	     87.86224199	      0.00000000	      0.00000000	    -23.32878575	    -54.21166587	     36.84236280	    101.77599889	     87.85231331	      0.00000000	      0.00000000
      5.35000000	    -23.41032949	     -1.04222293	     -3.43286180	     -0.25191674	      0.78956946	     -0.85270424	     62.98434313	    -26.31133780	    -12.95616993	     73.97135444	      1.29104369	     27.07883490	      0.00000000	      0.00000000	     65.23319192	    -32.62362674	     -6.42901784	     72.20267534	      1.26017441	     25.43542090	      0.00000000	      0.00000000	    -15.57354503	      3.00938200	      5.61002992	    -33.74087781	    -49.42257928	     33.19644423	     94.07325685	     87.85707989	      0.00000000	      0.00000000	    -23.22584031	    -54.45801425	     37.14045645	    101.94477067	     87.84495134	      0.00000000	      0.00000000
